<?xml version="1.0" encoding="utf-8"?>
<!-- Generator: Adobe Illustrator 15.1.0, SVG Export Plug-In . SVG Version: 6.00 Build 0)  -->
<!DOCTYPE svg PUBLIC "-//W3C//DTD SVG 1.1//EN" "http://www.w3.org/Graphics/SVG/1.1/DTD/svg11.dtd">
<svg version="1.1" id="Layer_1" xmlns="http://www.w3.org/2000/svg" xmlns:xlink="http://www.w3.org/1999/xlink" x="0px" y="0px"
	 width="12.75px" height="13.25px" viewBox="0 0 12.75 13.25" enable-background="new 0 0 12.75 13.25" xml:space="preserve">
<g>
	<path fill="#FFFFFF" d="M8.609,0.802H4.14c-1.982,0-3.588,1.607-3.588,3.589v4.47c0,1.98,1.605,3.588,3.588,3.588h4.469
		c1.982,0,3.588-1.607,3.588-3.588v-4.47C12.197,2.41,10.592,0.802,8.609,0.802 M11.08,8.431c0,1.603-1.299,2.899-2.899,2.899H4.569
		c-1.601,0-2.898-1.297-2.898-2.899V4.82c0-1.601,1.298-2.899,2.898-2.899h3.612c1.6,0,2.899,1.299,2.899,2.899V8.431z"/>
	<path fill="#FFFFFF" d="M6.531,3.579c-1.694,0-3.067,1.373-3.067,3.067c0,1.693,1.373,3.067,3.067,3.067s3.067-1.374,3.067-3.067
		C9.598,4.952,8.225,3.579,6.531,3.579 M6.531,8.492c-1.02,0-1.846-0.827-1.846-1.846c0-1.02,0.826-1.846,1.846-1.846
		s1.846,0.826,1.846,1.846C8.377,7.665,7.55,8.492,6.531,8.492"/>
	<path fill="#FFFFFF" d="M10.166,3.531c0,0.431-0.35,0.78-0.779,0.78c-0.432,0-0.781-0.35-0.781-0.78s0.35-0.78,0.781-0.78
		C9.816,2.75,10.166,3.1,10.166,3.531"/>
</g>
</svg>
