<?xml version="1.0" encoding="utf-8"?>
<!-- Generator: Adobe Illustrator 15.1.0, SVG Export Plug-In . SVG Version: 6.00 Build 0)  -->
<!DOCTYPE svg PUBLIC "-//W3C//DTD SVG 1.1//EN" "http://www.w3.org/Graphics/SVG/1.1/DTD/svg11.dtd">
<svg version="1.1" id="Layer_1" xmlns="http://www.w3.org/2000/svg" xmlns:xlink="http://www.w3.org/1999/xlink" x="0px" y="0px"
	 width="160.125px" height="16.5px" viewBox="0 0 160.125 16.5" enable-background="new 0 0 160.125 16.5" xml:space="preserve">
<polygon fill="#232020" points="6.005,15.383 0.942,15.383 0.942,1.177 5.476,1.177 9.797,6.926 14.118,1.177 18.651,1.177 
	18.651,15.383 13.588,15.383 13.715,7.76 13.673,7.717 9.797,12.925 5.92,7.717 5.878,7.76 "/>
<polygon fill="#232020" points="28.307,4.551 20.724,4.551 20.724,1.176 36.208,1.176 28.814,12.007 35.932,12.007 35.932,15.382 
	20.914,15.382 "/>
<path fill="#232020" d="M51.211,9.372l-3.113-6.691l-3.102,6.691H51.211z M48.415,0.891l6.679,14.308h-1.171l-2.286-4.912h-7.065
	l-2.278,4.912h-1.171l6.678-14.308H48.415z"/>
<g>
	<path fill="#232020" d="M57.958,1.908v5.563h2.399c1.221,0,2.153-0.243,2.797-0.727c0.645-0.485,0.967-1.171,0.967-2.06
		c0-0.874-0.327-1.555-0.982-2.043c-0.655-0.489-1.597-0.733-2.823-0.733H57.958z M56.841,0.993h3.702
		c1.551,0,2.737,0.33,3.557,0.991c0.82,0.662,1.231,1.554,1.231,2.68c0,1.64-0.917,2.793-2.751,3.457
		c0.476,0.225,1.117,0.946,1.924,2.166l3.268,4.912h-1.323l-2.516-3.893c-0.84-1.302-1.496-2.114-1.964-2.437
		c-0.469-0.322-1.154-0.483-2.057-0.483h-1.954v6.813h-1.117V0.993z"/>
	<path fill="#232020" d="M81.009,2v1.2c-1.751-0.915-3.467-1.373-5.149-1.373c-1.793,0-3.293,0.601-4.5,1.801
		c-1.205,1.199-1.809,2.697-1.809,4.494c0,1.817,0.607,3.312,1.821,4.485c1.212,1.172,2.76,1.759,4.643,1.759
		c1.571,0,3.284-0.485,5.139-1.454v1.139c-1.709,0.888-3.416,1.332-5.119,1.332c-2.2,0-4.031-0.693-5.496-2.08
		c-1.465-1.386-2.198-3.113-2.198-5.181c0-2.081,0.748-3.82,2.244-5.216c1.496-1.396,3.279-2.096,5.346-2.096
		C77.559,0.81,79.251,1.207,81.009,2"/>
	<polygon fill="#232020" points="95.197,0.993 95.197,15.199 94.07,15.199 94.07,8.467 84.431,8.467 84.431,15.199 83.315,15.199 
		83.315,0.993 84.431,0.993 84.431,7.553 94.07,7.553 94.07,0.993 	"/>
	<rect x="98.526" y="0.993" fill="#232020" width="1.116" height="14.206"/>
	<polygon fill="#232020" points="113.324,0.993 113.324,1.908 107.906,1.908 107.906,15.199 106.779,15.199 106.779,1.908 
		101.359,1.908 101.359,0.993 	"/>
	<polygon fill="#232020" points="122.994,0.993 122.994,1.908 116.231,1.908 116.231,7.593 122.818,7.593 122.818,8.519 
		116.231,8.519 116.231,14.284 123.159,14.284 123.159,15.199 115.114,15.199 115.114,0.993 	"/>
	<path fill="#232020" d="M137.503,2v1.2c-1.751-0.915-3.468-1.373-5.15-1.373c-1.793,0-3.292,0.601-4.499,1.801
		c-1.205,1.199-1.809,2.697-1.809,4.494c0,1.817,0.607,3.312,1.82,4.485c1.213,1.172,2.761,1.759,4.643,1.759
		c1.572,0,3.285-0.485,5.139-1.454v1.139c-1.709,0.888-3.415,1.332-5.117,1.332c-2.2,0-4.031-0.693-5.497-2.08
		c-1.464-1.386-2.197-3.113-2.197-5.181c0-2.081,0.748-3.82,2.243-5.216c1.497-1.396,3.278-2.096,5.347-2.096
		C134.053,0.81,135.745,1.207,137.503,2"/>
	<polygon fill="#232020" points="150.181,0.993 150.181,1.908 144.762,1.908 144.762,15.199 143.636,15.199 143.636,1.908 
		138.216,1.908 138.216,0.993 	"/>
	<path fill="#232020" d="M158.743,1.705v1.21c-1.255-0.725-2.334-1.088-3.237-1.088c-0.868,0-1.594,0.259-2.176,0.778
		c-0.584,0.518-0.875,1.161-0.875,1.927c0,0.549,0.173,1.044,0.519,1.485c0.345,0.441,1.063,0.865,2.161,1.271
		c1.097,0.407,1.896,0.746,2.398,1.017c0.503,0.272,0.932,0.665,1.282,1.179c0.352,0.516,0.528,1.184,0.528,2.003
		c0,1.093-0.407,2.014-1.221,2.767c-0.813,0.752-1.807,1.129-2.978,1.129c-1.2,0-2.435-0.414-3.703-1.241V12.85
		c1.4,1.011,2.613,1.516,3.64,1.516c0.855,0,1.577-0.273,2.166-0.818c0.59-0.547,0.886-1.216,0.886-2.009
		c0-0.604-0.184-1.149-0.55-1.633c-0.364-0.485-1.105-0.938-2.222-1.36c-1.116-0.42-1.914-0.761-2.393-1.017
		c-0.48-0.258-0.888-0.625-1.222-1.103c-0.336-0.479-0.503-1.093-0.503-1.845c0-1.043,0.407-1.933,1.222-2.669
		c0.813-0.734,1.793-1.102,2.937-1.102C156.527,0.81,157.641,1.108,158.743,1.705"/>
</g>
</svg>
